<svg xmlns="http://www.w3.org/2000/svg" width="472" height="237" fill="none" viewBox="0 0 472 237"><rect width="471.914" height="235.957" x=".086" y=".522" fill="#fff" rx="10.409"/><rect width="26.022" height="8.24" x="18.237" y="39.297" fill="#F9E3E2" rx="2.602"/><rect width="86.74" height="17.348" x="18.237" y="50.573" fill="#D9D9D9" rx="2.602"/><rect width="65.488" height="8.24" x="18.237" y="111.724" fill="#F9E3E2" rx="2.602"/><rect width="99.751" height="17.348" x="18.237" y="123.001" fill="#D9D9D9" rx="2.602"/><rect width="32.961" height="8.24" x="18.237" y="184.152" fill="#F9E3E2" rx="2.602"/><rect width="92.811" height="17.348" x="18.237" y="195.428" fill="#D9D9D9" rx="2.602"/><rect width="66.356" height="8.24" x="132.299" y="39.297" fill="#F9E3E2" rx="2.602"/><rect width="88.474" height="17.348" x="132.299" y="50.573" fill="#D9D9D9" rx="2.602"/><rect width="68.872" height="8.24" x="132.299" y="111.724" fill="#F9E3E2" rx="2.602"/><rect width="94.98" height="17.348" x="132.299" y="123.001" fill="#D9D9D9" rx="2.602"/><rect width="66.356" height="8.24" x="132.299" y="184.152" fill="#F9E3E2" rx="2.602"/><rect width="88.474" height="17.348" x="132.299" y="195.428" fill="#D9D9D9" rx="2.602"/><rect width="66.356" height="8.24" x="247.229" y="39.297" fill="#F9E3E2" rx="2.602"/><rect width="88.474" height="17.348" x="247.229" y="50.573" fill="#D9D9D9" rx="2.602"/><rect width="66.356" height="8.24" x="247.229" y="111.724" fill="#F9E3E2" rx="2.602"/><rect width="93.245" height="17.348" x="247.229" y="123.001" fill="#D9D9D9" rx="2.602"/><rect width="66.356" height="8.24" x="247.229" y="184.152" fill="#F9E3E2" rx="2.602"/><rect width="88.474" height="17.348" x="247.229" y="195.428" fill="#D9D9D9" rx="2.602"/><rect width="66.356" height="8.24" x="353.485" y="39.297" fill="#F9E3E2" rx="2.602"/><rect width="88.474" height="17.348" x="353.485" y="50.573" fill="#D9D9D9" rx="2.602"/><rect width="66.356" height="8.24" x="353.485" y="111.724" fill="#F9E3E2" rx="2.602"/><rect width="98.016" height="17.348" x="353.485" y="123.001" fill="#D9D9D9" rx="2.602"/><rect width="66.356" height="8.24" x="353.485" y="184.152" fill="#F9E3E2" rx="2.602"/><rect width="100.184" height="17.348" x="353.485" y="195.428" fill="#D9D9D9" rx="2.602"/><rect width="8.674" height="8.674" x="18.237" y="24.117" fill="#FF8C9C"/><rect width="8.674" height="8.674" x="18.237" y="94.376" fill="#FF8C9C"/><rect width="8.674" height="8.674" x="18.237" y="169.406" fill="#FF8C9C"/><rect width="8.674" height="8.674" x="132.299" y="24.117" fill="#FF8C9C"/><rect width="8.674" height="8.674" x="132.299" y="94.376" fill="#FF8C9C"/><rect width="8.674" height="8.674" x="132.299" y="169.406" fill="#FF8C9C"/><rect width="8.674" height="8.674" x="247.229" y="24.117" fill="#FF8C9C"/><rect width="8.674" height="8.674" x="247.229" y="94.376" fill="#FF8C9C"/><rect width="8.674" height="8.674" x="247.229" y="169.406" fill="#FF8C9C"/><rect width="8.674" height="8.674" x="353.485" y="24.117" fill="#FF8C9C"/><rect width="8.674" height="8.674" x="353.485" y="94.376" fill="#FF8C9C"/><rect width="8.674" height="8.674" x="353.485" y="169.406" fill="#FF8C9C"/></svg>