<svg xmlns="http://www.w3.org/2000/svg" width="472" height="237" fill="none" viewBox="0 0 472 237"><rect width="472" height="236" y=".75" fill="#fff" rx="15.883"/><rect width="11.912" height="11.912" x="11.912" y="33.839" fill="#FF8C9C"/><rect width="135.665" height="19.853" x="11.251" y="61.634" fill="#D9D9D9" rx="2.647"/><rect width="80.075" height="9.927" x="11.251" y="96.046" fill="#F9E3E2" rx="2.647"/><rect width="27.133" height="9.927" x="332.213" y="37.148" fill="#F9E3E2" rx="2.647"/><rect width="41.03" height="9.927" x="332.213" y="56.339" fill="#D9D9D9" rx="2.647"/><rect width="17.868" height="9.927" x="405.67" y="56.339" fill="#D9D9D9" rx="2.647"/><rect width="21.839" height="9.927" x="405.67" y="75.531" fill="#D9D9D9" rx="2.647"/><rect width="46.325" height="9.927" x="405.67" y="94.722" fill="#D9D9D9" rx="2.647"/><rect width="49.633" height="9.927" x="405.67" y="113.914" fill="#D9D9D9" rx="2.647"/><rect width="28.456" height="9.927" x="332.213" y="75.531" fill="#D9D9D9" rx="2.647"/><rect width="28.456" height="9.927" x="332.213" y="94.722" fill="#D9D9D9" rx="2.647"/><rect width="28.456" height="9.927" x="332.213" y="113.914" fill="#D9D9D9" rx="2.647"/><rect width="29.118" height="9.927" x="405.67" y="37.148" fill="#F9E3E2" rx="2.647"/><rect width="107.208" height="9.927" x="11.251" y="195.975" fill="#D9D9D9" rx="2.647"/></svg>